{
  "source": "C:\\Users\\Peter\\Desktop\\stuff\\MIUN\\quantitative_research\\video_compression\\videos\\BVI-HD\\TreeTrunk_1920x1080_50fps.mp4",
  "output": "C:\\Users\\Peter\\Desktop\\stuff\\MIUN\\quantitative_research\\video_compression\\compressed_videos\\BVI-HD\\hevc\\12\\TreeTrunk_1920x1080_50fps_hevc.mp4",
  "codec": "hevc",
  "ok": "Input #0, mov,mp4,m4a,3gp,3g2,mj2, from 'C:\\Users\\Peter\\Desktop\\stuff\\MIUN\\quantitative_research\\video_compression\\videos\\BVI-HD\\TreeTrunk_1920x1080_50fps.mp4':\n  Metadata:\n    major_brand     : isom\n    minor_version   : 512\n    compatible_brands: isomiso2avc1mp41\n    encoder         : Lavf54.28.101\n  Duration: 00:00:05.00, start: 0.000000, bitrate: 622415 kb/s\n  Stream #0:0[0x1](und): Video: h264 (High 4:4:4 Predictive) (avc1 / 0x31637661), yuv420p(progressive), 1920x1080, 622410 kb/s, 50 fps, 50 tbr, 50 tbn (default)\n    Metadata:\n      handler_name    : VideoHandler\n      vendor_id       : [0][0][0][0]\n[out#0/mp4 @ 000002ce2835f100] Codec AVOption b:a (set bitrate (in bits/s)) has not been used for any stream. The most likely reason is either wrong type (e.g. a video option with no video streams) or that it is a private option of some decoder which was not actually used for any stream.\nStream mapping:\n  Stream #0:0 -> #0:0 (h264 (native) -> hevc (libx265))\nPress [q] to stop, [?] for help\n[libx265 @ 000002ce2756b940] Unknown option: \"aq-mode.\nx265 [info]: HEVC encoder version 4.1+190-8f11c33ac\nx265 [info]: build info [Windows][GCC 15.1.0][64 bit] 10bit\nx265 [info]: using cpu capabilities: MMX2 SSE2Fast LZCNT SSSE3 SSE4.2 AVX FMA3 BMI2 AVX2\nx265 [info]: Main 10 profile, Level-4.1 (Main tier)\nx265 [info]: Thread pool created using 12 threads\nx265 [info]: Slices                              : 1\nx265 [info]: frame threads / pool features       : 3 / wpp(17 rows)\nx265 [info]: Coding QT: max CU size, min CU size : 64 / 8\nx265 [info]: Residual QT: max TU size, max depth : 32 / 1 inter / 1 intra\nx265 [info]: ME / range / subpel / merge         : star / 57 / 3 / 3\nx265 [info]: Keyframe min / max / scenecut / bias  : 25 / 250 / 40 / 5.00 \nx265 [info]: Lookahead / bframes / badapt        : 25 / 4 / 2\nx265 [info]: b-pyramid / weightp / weightb       : 1 / 1 / 0\nx265 [info]: References / ref-limit  cu / depth  : 4 / on / on\nx265 [info]: AQ: mode / str / qg-size / cu-tree  : 2 / 1.0 / 32 / 1\nx265 [info]: Rate Control / qCompress            : ABR-12000 kbps / 0.60\nx265 [info]: VBV/HRD buffer / max-rate / init    : 12000 / 12000 / 0.750\nx265 [info]: tools: rect limit-modes rd=4 psy-rd=2.00 rdoq=2 psy-rdoq=1.00\nx265 [info]: tools: rskip mode=1 signhide tmvp strong-intra-smoothing lslices=4\nx265 [info]: tools: deblock sao dhdr10-info\nOutput #0, mp4, to 'C:\\Users\\Peter\\Desktop\\stuff\\MIUN\\quantitative_research\\video_compression\\compressed_videos\\BVI-HD\\hevc\\12\\TreeTrunk_1920x1080_50fps_hevc.mp4':\n  Metadata:\n    major_brand     : isom\n    minor_version   : 512\n    compatible_brands: isomiso2avc1mp41\n    encoder         : Lavf62.3.100\n  Stream #0:0(und): Video: hevc (hev1 / 0x31766568), yuv420p10le(tv, progressive), 1920x1080, q=2-31, 12000 kb/s, 50 fps, 12800 tbn (default)\n    Metadata:\n      encoder         : Lavc62.11.100 libx265\n      handler_name    : VideoHandler\n      vendor_id       : [0][0][0][0]\n    Side data:\n      cpb: bitrate max/min/avg: 12000000/0/12000000 buffer size: 12000000 vbv_delay: N/A\nframe=    0 fps=0.0 q=0.0 size=       0KiB time=N/A bitrate=N/A speed=N/A elapsed=0:00:00.51    \nframe=    0 fps=0.0 q=0.0 size=       0KiB time=N/A bitrate=N/A speed=N/A elapsed=0:00:01.03    \nframe=    0 fps=0.0 q=0.0 size=       0KiB time=N/A bitrate=N/A speed=N/A elapsed=0:00:01.55    \nframe=    0 fps=0.0 q=0.0 size=       0KiB time=N/A bitrate=N/A speed=N/A elapsed=0:00:02.07    \nframe=    0 fps=0.0 q=0.0 size=       0KiB time=N/A bitrate=N/A speed=N/A elapsed=0:00:02.60    \nframe=    0 fps=0.0 q=0.0 size=       0KiB time=N/A bitrate=N/A speed=N/A elapsed=0:00:03.10    \nframe=    0 fps=0.0 q=0.0 size=       0KiB time=N/A bitrate=N/A speed=N/A elapsed=0:00:03.62    \nframe=    0 fps=0.0 q=0.0 size=       0KiB time=N/A bitrate=N/A speed=N/A elapsed=0:00:04.13    \nframe=    0 fps=0.0 q=0.0 size=       0KiB time=N/A bitrate=N/A speed=N/A elapsed=0:00:04.65    \nframe=    0 fps=0.0 q=0.0 size=       0KiB time=N/A bitrate=N/A speed=N/A elapsed=0:00:05.18    \nframe=    0 fps=0.0 q=0.0 size=       0KiB time=N/A bitrate=N/A speed=N/A elapsed=0:00:05.68    \nframe=    0 fps=0.0 q=0.0 size=       0KiB time=N/A bitrate=N/A speed=N/A elapsed=0:00:06.20    \nframe=    0 fps=0.0 q=0.0 size=       0KiB time=N/A bitrate=N/A speed=N/A elapsed=0:00:06.72    \nframe=    0 fps=0.0 q=0.0 size=       0KiB time=N/A bitrate=N/A speed=N/A elapsed=0:00:07.23    \nframe=    0 fps=0.0 q=0.0 size=       0KiB time=N/A bitrate=N/A speed=N/A elapsed=0:00:07.75    \nframe=    1 fps=0.1 q=25.6 size=       0KiB time=-00:00:00.02 bitrate=N/A speed=N/A elapsed=0:00:08.27    \nframe=    2 fps=0.2 q=34.4 size=     256KiB time=00:00:00.00 bitrate=N/A speed=   0x elapsed=0:00:08.78    \nframe=    4 fps=0.4 q=41.0 size=     256KiB time=00:00:00.04 bitrate=52437.6kbits/s speed=0.0043x elapsed=0:00:09.30    \nframe=    4 fps=0.4 q=41.0 size=     256KiB time=00:00:00.04 bitrate=52437.6kbits/s speed=0.00408x elapsed=0:00:09.80    \nframe=    5 fps=0.5 q=39.0 size=     256KiB time=00:00:00.06 bitrate=34958.4kbits/s speed=0.00581x elapsed=0:00:10.32    \nframe=    5 fps=0.5 q=39.0 size=     256KiB time=00:00:00.06 bitrate=34958.4kbits/s speed=0.00553x elapsed=0:00:10.85    \nframe=    7 fps=0.6 q=29.1 size=     256KiB time=00:00:00.10 bitrate=20975.0kbits/s speed=0.00881x elapsed=0:00:11.35    \nframe=    7 fps=0.6 q=29.1 size=     256KiB time=00:00:00.10 bitrate=20975.0kbits/s speed=0.00842x elapsed=0:00:11.88    \nframe=    8 fps=0.6 q=31.4 size=     256KiB time=00:00:00.12 bitrate=17479.2kbits/s speed=0.00968x elapsed=0:00:12.40    \nframe=    9 fps=0.7 q=30.9 size=     256KiB time=00:00:00.14 bitrate=14982.2kbits/s speed=0.0108x elapsed=0:00:12.90    \nframe=    9 fps=0.7 q=30.9 size=     256KiB time=00:00:00.14 bitrate=14982.2kbits/s speed=0.0104x elapsed=0:00:13.42    \nframe=   10 fps=0.7 q=32.6 size=     256KiB time=00:00:00.16 bitrate=13109.4kbits/s speed=0.0115x elapsed=0:00:13.93    \nframe=   11 fps=0.8 q=31.7 size=     256KiB time=00:00:00.18 bitrate=11652.8kbits/s speed=0.0125x elapsed=0:00:14.45    \nframe=   12 fps=0.8 q=27.7 size=     256KiB time=00:00:00.20 bitrate=10487.5kbits/s speed=0.0134x elapsed=0:00:14.97    \nframe=   12 fps=0.8 q=27.7 size=     256KiB time=00:00:00.20 bitrate=10487.5kbits/s speed=0.0129x elapsed=0:00:15.48    \nframe=   13 fps=0.8 q=31.2 size=     512KiB time=00:00:00.22 bitrate=19066.6kbits/s speed=0.0137x elapsed=0:00:16.00    \nframe=   14 fps=0.8 q=31.4 size=     512KiB time=00:00:00.24 bitrate=17477.7kbits/s speed=0.0145x elapsed=0:00:16.51    \nframe=   14 fps=0.8 q=31.4 size=     512KiB time=00:00:00.24 bitrate=17477.7kbits/s speed=0.0141x elapsed=0:00:17.03    \nframe=   14 fps=0.8 q=31.4 size=     512KiB time=00:00:00.24 bitrate=17477.7kbits/s speed=0.0137x elapsed=0:00:17.54    \nframe=   15 fps=0.8 q=32.9 size=     512KiB time=00:00:00.26 bitrate=16133.3kbits/s speed=0.0144x elapsed=0:00:18.06    \nframe=   16 fps=0.9 q=33.0 size=     512KiB time=00:00:00.28 bitrate=14980.9kbits/s speed=0.0151x elapsed=0:00:18.58    \nframe=   18 fps=0.9 q=33.8 size=     512KiB time=00:00:00.32 bitrate=13108.3kbits/s speed=0.0168x elapsed=0:00:19.08    \nframe=   19 fps=1.0 q=34.9 size=     512KiB time=00:00:00.34 bitrate=12337.2kbits/s speed=0.0173x elapsed=0:00:19.61    \nframe=   19 fps=0.9 q=34.9 size=     512KiB time=00:00:00.34 bitrate=12337.2kbits/s speed=0.0169x elapsed=0:00:20.13    \nframe=   20 fps=1.0 q=34.9 size=     512KiB time=00:00:00.36 bitrate=11651.8kbits/s speed=0.0174x elapsed=0:00:20.63    \nframe=   21 fps=1.0 q=35.0 size=     512KiB time=00:00:00.38 bitrate=11038.6kbits/s speed=0.018x elapsed=0:00:21.16    \nframe=   22 fps=1.0 q=25.7 size=     512KiB time=00:00:00.40 bitrate=10486.6kbits/s speed=0.0184x elapsed=0:00:21.68    \nframe=   23 fps=1.0 q=32.9 size=     768KiB time=00:00:00.42 bitrate=14980.5kbits/s speed=0.0189x elapsed=0:00:22.20    \nframe=   24 fps=1.1 q=34.0 size=     768KiB time=00:00:00.44 bitrate=14299.6kbits/s speed=0.0194x elapsed=0:00:22.72    \nframe=   24 fps=1.0 q=34.0 size=     768KiB time=00:00:00.44 bitrate=14299.6kbits/s speed=0.0189x elapsed=0:00:23.23    \nframe=   24 fps=1.0 q=34.0 size=     768KiB time=00:00:00.44 bitrate=14299.6kbits/s speed=0.0185x elapsed=0:00:23.74    \nframe=   25 fps=1.0 q=34.6 size=     768KiB time=00:00:00.46 bitrate=13677.8kbits/s speed=0.0189x elapsed=0:00:24.27    \nframe=   25 fps=1.0 q=34.6 size=     768KiB time=00:00:00.46 bitrate=13677.8kbits/s speed=0.0185x elapsed=0:00:24.82    \nframe=   25 fps=1.0 q=34.6 size=     768KiB time=00:00:00.46 bitrate=13677.8kbits/s speed=0.0181x elapsed=0:00:25.37    \nframe=   25 fps=1.0 q=34.6 size=     768KiB time=00:00:00.46 bitrate=13677.8kbits/s speed=0.0178x elapsed=0:00:25.90    \nframe=   26 fps=1.0 q=34.7 size=     768KiB time=00:00:00.48 bitrate=13107.9kbits/s speed=0.0182x elapsed=0:00:26.42    \nframe=   26 fps=1.0 q=34.7 size=     768KiB time=00:00:00.48 bitrate=13107.9kbits/s speed=0.0178x elapsed=0:00:26.97    \nframe=   26 fps=0.9 q=34.7 size=     768KiB time=00:00:00.48 bitrate=13107.9kbits/s speed=0.0175x elapsed=0:00:27.49    \nframe=   26 fps=0.9 q=34.7 size=     768KiB time=00:00:00.48 bitrate=13107.9kbits/s speed=0.0171x elapsed=0:00:28.04    \nframe=   26 fps=0.9 q=34.7 size=     768KiB time=00:00:00.48 bitrate=13107.9kbits/s speed=0.0168x elapsed=0:00:28.56    \nframe=   27 fps=0.9 q=25.8 size=     768KiB time=00:00:00.50 bitrate=12583.6kbits/s speed=0.0172x elapsed=0:00:29.09    \nframe=   28 fps=0.9 q=32.9 size=     768KiB time=00:00:00.52 bitrate=12099.6kbits/s speed=0.0176x elapsed=0:00:29.62    \nframe=   28 fps=0.9 q=32.9 size=     768KiB time=00:00:00.52 bitrate=12099.6kbits/s speed=0.0172x elapsed=0:00:30.16    \nframe=   29 fps=0.9 q=34.7 size=     768KiB time=00:00:00.54 bitrate=11651.5kbits/s speed=0.0176x elapsed=0:00:30.70    \nframe=   29 fps=0.9 q=34.7 size=     768KiB time=00:00:00.54 bitrate=11651.5kbits/s speed=0.0173x elapsed=0:00:31.23    \nframe=   29 fps=0.9 q=34.7 size=     768KiB time=00:00:00.54 bitrate=11651.5kbits/s speed=0.017x elapsed=0:00:31.78    \nframe=   29 fps=0.9 q=34.7 size=     768KiB time=00:00:00.54 bitrate=11651.5kbits/s speed=0.0167x elapsed=0:00:32.33    \nframe=   29 fps=0.9 q=34.7 size=     768KiB time=00:00:00.54 bitrate=11651.5kbits/s speed=0.0164x elapsed=0:00:32.84    \nframe=   29 fps=0.9 q=34.7 size=     768KiB time=00:00:00.54 bitrate=11651.5kbits/s speed=0.0162x elapsed=0:00:33.37    \nframe=   29 fps=0.9 q=34.7 size=     768KiB time=00:00:00.54 bitrate=11651.5kbits/s speed=0.0159x elapsed=0:00:33.90    \nframe=   29 fps=0.8 q=34.7 size=     768KiB time=00:00:00.54 bitrate=11651.5kbits/s speed=0.0157x elapsed=0:00:34.46    \nframe=   29 fps=0.8 q=34.7 size=     768KiB time=00:00:00.54 bitrate=11651.5kbits/s speed=0.0154x elapsed=0:00:35.00    \nframe=   30 fps=0.8 q=34.8 size=     768KiB time=00:00:00.56 bitrate=11235.4kbits/s speed=0.0158x elapsed=0:00:35.53    \nframe=   30 fps=0.8 q=34.8 size=     768KiB time=00:00:00.56 bitrate=11235.4kbits/s speed=0.0155x elapsed=0:00:36.07    \nframe=   30 fps=0.8 q=34.8 size=     768KiB time=00:00:00.56 bitrate=11235.4kbits/s speed=0.0153x elapsed=0:00:36.59    \nframe=   31 fps=0.8 q=35.0 size=     768KiB time=00:00:00.58 bitrate=10847.9kbits/s speed=0.0156x elapsed=0:00:37.14    \nframe=   31 fps=0.8 q=35.0 size=     768KiB time=00:00:00.58 bitrate=10847.9kbits/s speed=0.0154x elapsed=0:00:37.67    \nframe=   32 fps=0.8 q=25.5 size=     768KiB time=00:00:00.60 bitrate=10486.3kbits/s speed=0.0157x elapsed=0:00:38.20    \nframe=   32 fps=0.8 q=25.5 size=     768KiB time=00:00:00.60 bitrate=10486.3kbits/s speed=0.0155x elapsed=0:00:38.71    \nframe=   32 fps=0.8 q=25.5 size=     768KiB time=00:00:00.60 bitrate=10486.3kbits/s speed=0.0153x elapsed=0:00:39.24    \nframe=   32 fps=0.8 q=25.5 size=     768KiB time=00:00:00.60 bitrate=10486.3kbits/s speed=0.0151x elapsed=0:00:39.77    \nframe=   32 fps=0.8 q=25.5 size=     768KiB time=00:00:00.60 bitrate=10486.3kbits/s speed=0.0149x elapsed=0:00:40.29    \nframe=   32 fps=0.8 q=25.5 size=     768KiB time=00:00:00.60 bitrate=10486.3kbits/s speed=0.0147x elapsed=0:00:40.81    \nframe=   32 fps=0.8 q=25.5 size=     768KiB time=00:00:00.60 bitrate=10486.3kbits/s speed=0.0145x elapsed=0:00:41.34    \nframe=   33 fps=0.8 q=32.3 size=    1024KiB time=00:00:00.62 bitrate=13530.6kbits/s speed=0.0148x elapsed=0:00:41.86    \nframe=   33 fps=0.8 q=32.3 size=    1024KiB time=00:00:00.62 bitrate=13530.6kbits/s speed=0.0146x elapsed=0:00:42.41    \nframe=   34 fps=0.8 q=34.9 size=    1024KiB time=00:00:00.64 bitrate=13107.8kbits/s speed=0.0149x elapsed=0:00:42.96    \nframe=   34 fps=0.8 q=34.9 size=    1024KiB time=00:00:00.64 bitrate=13107.8kbits/s speed=0.0147x elapsed=0:00:43.48    \nframe=   34 fps=0.8 q=34.9 size=    1024KiB time=00:00:00.64 bitrate=13107.8kbits/s speed=0.0145x elapsed=0:00:44.03    \nframe=   35 fps=0.8 q=25.9 size=    1024KiB time=00:00:00.66 bitrate=12710.5kbits/s speed=0.0148x elapsed=0:00:44.55    \nframe=   35 fps=0.8 q=25.9 size=    1024KiB time=00:00:00.66 bitrate=12710.5kbits/s speed=0.0146x elapsed=0:00:45.10    \nframe=   36 fps=0.8 q=33.6 size=    1024KiB time=00:00:00.68 bitrate=12336.7kbits/s speed=0.0149x elapsed=0:00:45.64    \nframe=   36 fps=0.8 q=33.6 size=    1024KiB time=00:00:00.68 bitrate=12336.7kbits/s speed=0.0147x elapsed=0:00:46.17    \nframe=   36 fps=0.8 q=33.6 size=    1024KiB time=00:00:00.68 bitrate=12336.7kbits/s speed=0.0146x elapsed=0:00:46.71    \nframe=   37 fps=0.8 q=35.0 size=    1024KiB time=00:00:00.70 bitrate=11984.2kbits/s speed=0.0148x elapsed=0:00:47.23    \nframe=   37 fps=0.8 q=35.0 size=    1024KiB time=00:00:00.70 bitrate=11984.2kbits/s speed=0.0146x elapsed=0:00:47.78    \nframe=   37 fps=0.8 q=35.0 size=    1024KiB time=00:00:00.70 bitrate=11984.2kbits/s speed=0.0145x elapsed=0:00:48.32    \nframe=   37 fps=0.8 q=35.0 size=    1024KiB time=00:00:00.70 bitrate=11984.2kbits/s speed=0.0143x elapsed=0:00:48.86    \nframe=   37 fps=0.7 q=35.0 size=    1024KiB time=00:00:00.70 bitrate=11984.2kbits/s speed=0.0142x elapsed=0:00:49.41    \nframe=   37 fps=0.7 q=35.0 size=    1024KiB time=00:00:00.70 bitrate=11984.2kbits/s speed=0.014x elapsed=0:00:49.93    \nframe=   38 fps=0.8 q=34.7 size=    1024KiB time=00:00:00.72 bitrate=11651.3kbits/s speed=0.0143x elapsed=0:00:50.45    \nframe=   39 fps=0.8 q=33.9 size=    1024KiB time=00:00:00.74 bitrate=11336.4kbits/s speed=0.0145x elapsed=0:00:50.99    \nframe=   39 fps=0.8 q=33.9 size=    1024KiB time=00:00:00.74 bitrate=11336.4kbits/s speed=0.0144x elapsed=0:00:51.52    \nframe=   39 fps=0.7 q=33.9 size=    1024KiB time=00:00:00.74 bitrate=11336.4kbits/s speed=0.0142x elapsed=0:00:52.05    \nframe=   39 fps=0.7 q=33.9 size=    1024KiB time=00:00:00.74 bitrate=11336.4kbits/s speed=0.0141x elapsed=0:00:52.59    \nframe=   39 fps=0.7 q=33.9 size=    1024KiB time=00:00:00.74 bitrate=11336.4kbits/s speed=0.0139x elapsed=0:00:53.11    \nframe=   40 fps=0.7 q=25.7 size=    1024KiB time=00:00:00.76 bitrate=11038.1kbits/s speed=0.0142x elapsed=0:00:53.62    \nframe=   41 fps=0.8 q=33.9 size=    1024KiB time=00:00:00.78 bitrate=10755.1kbits/s speed=0.0144x elapsed=0:00:54.14    \nframe=   42 fps=0.8 q=35.0 size=    1024KiB time=00:00:00.80 bitrate=10486.2kbits/s speed=0.0146x elapsed=0:00:54.68    \nframe=   42 fps=0.8 q=35.0 size=    1024KiB time=00:00:00.80 bitrate=10486.2kbits/s speed=0.0145x elapsed=0:00:55.20    \nframe=   42 fps=0.8 q=35.0 size=    1024KiB time=00:00:00.80 bitrate=10486.2kbits/s speed=0.0144x elapsed=0:00:55.74    \nframe=   42 fps=0.7 q=35.0 size=    1024KiB time=00:00:00.80 bitrate=10486.2kbits/s speed=0.0142x elapsed=0:00:56.24    \nframe=   43 fps=0.8 q=33.8 size=    1024KiB time=00:00:00.82 bitrate=10230.4kbits/s speed=0.0144x elapsed=0:00:56.80    \nframe=   43 fps=0.7 q=33.8 size=    1024KiB time=00:00:00.82 bitrate=10230.4kbits/s speed=0.0143x elapsed=0:00:57.35    \nframe=   43 fps=0.7 q=33.8 size=    1024KiB time=00:00:00.82 bitrate=10230.4kbits/s speed=0.0142x elapsed=0:00:57.87    \nframe=   44 fps=0.8 q=33.9 size=    1024KiB time=00:00:00.84 bitrate=9986.9kbits/s speed=0.0144x elapsed=0:00:58.42    \nframe=   44 fps=0.7 q=33.9 size=    1024KiB time=00:00:00.84 bitrate=9986.9kbits/s speed=0.0142x elapsed=0:00:58.97    \nframe=   44 fps=0.7 q=33.9 size=    1024KiB time=00:00:00.84 bitrate=9986.9kbits/s speed=0.0141x elapsed=0:00:59.49    \nframe=   44 fps=0.7 q=33.9 size=    1024KiB time=00:00:00.84 bitrate=9986.9kbits/s speed=0.014x elapsed=0:01:00.04    \nframe=   45 fps=0.7 q=25.6 size=    1024KiB time=00:00:00.84 bitrate=9986.9kbits/s speed=0.0139x elapsed=0:01:00.58    \nframe=   45 fps=0.7 q=25.6 size=    1024KiB time=00:00:00.86 bitrate=9754.6kbits/s speed=0.0141x elapsed=0:01:01.16    \nframe=   45 fps=0.7 q=25.6 size=    1024KiB time=00:00:00.86 bitrate=9754.6kbits/s speed=0.0139x elapsed=0:01:01.68    \nframe=   45 fps=0.7 q=25.6 size=    1024KiB time=00:00:00.86 bitrate=9754.6kbits/s speed=0.0138x elapsed=0:01:02.21    \nframe=   46 fps=0.7 q=32.4 size=    1280KiB time=00:00:00.88 bitrate=11916.0kbits/s speed=0.014x elapsed=0:01:02.78    \nframe=   46 fps=0.7 q=32.4 size=    1280KiB time=00:00:00.88 bitrate=11916.0kbits/s speed=0.0139x elapsed=0:01:03.35    \nframe=   46 fps=0.7 q=32.4 size=    1280KiB time=00:00:00.88 bitrate=11916.0kbits/s speed=0.0138x elapsed=0:01:03.88    \nframe=   46 fps=0.7 q=32.4 size=    1280KiB time=00:00:00.88 bitrate=11916.0kbits/s speed=0.0137x elapsed=0:01:04.42    \nframe=   46 fps=0.7 q=32.4 size=    1280KiB time=00:00:00.88 bitrate=11916.0kbits/s speed=0.0135x elapsed=0:01:04.98    \nframe=   46 fps=0.7 q=32.4 size=    1280KiB time=00:00:00.88 bitrate=11916.0kbits/s speed=0.0134x elapsed=0:01:05.50    \nframe=   46 fps=0.7 q=32.4 size=    1280KiB time=00:00:00.88 bitrate=11916.0kbits/s speed=0.0133x elapsed=0:01:06.03    \nframe=   47 fps=0.7 q=34.0 size=    1280KiB time=00:00:00.90 bitrate=11651.2kbits/s speed=0.0135x elapsed=0:01:06.55    \nframe=   47 fps=0.7 q=34.0 size=    1280KiB time=00:00:00.90 bitrate=11651.2kbits/s speed=0.0134x elapsed=0:01:07.08    \nframe=   47 fps=0.7 q=34.0 size=    1280KiB time=00:00:00.90 bitrate=11651.2kbits/s speed=0.0133x elapsed=0:01:07.61    \nframe=   48 fps=0.7 q=33.9 size=    1280KiB time=00:00:00.92 bitrate=11397.9kbits/s speed=0.0135x elapsed=0:01:08.14    \nframe=   48 fps=0.7 q=33.9 size=    1280KiB time=00:00:00.92 bitrate=11397.9kbits/s speed=0.0134x elapsed=0:01:08.65    \nframe=   50 fps=0.7 q=30.9 size=    1280KiB time=00:00:00.96 bitrate=10923.0kbits/s speed=0.0139x elapsed=0:01:09.21    \nframe=   50 fps=0.7 q=30.9 size=    1280KiB time=00:00:00.96 bitrate=10923.0kbits/s speed=0.0138x elapsed=0:01:09.72    \nframe=   50 fps=0.7 q=30.9 size=    1280KiB time=00:00:00.96 bitrate=10923.0kbits/s speed=0.0137x elapsed=0:01:10.25    \nframe=   51 fps=0.7 q=33.0 size=    1280KiB time=00:00:00.98 bitrate=10700.1kbits/s speed=0.0138x elapsed=0:01:10.77    \nframe=   51 fps=0.7 q=33.0 size=    1280KiB time=00:00:00.98 bitrate=10700.1kbits/s speed=0.0137x elapsed=0:01:11.30    \nframe=   51 fps=0.7 q=33.0 size=    1280KiB time=00:00:00.98 bitrate=10700.1kbits/s speed=0.0136x elapsed=0:01:11.83    \nframe=   51 fps=0.7 q=33.0 size=    1280KiB time=00:00:00.98 bitrate=10700.1kbits/s speed=0.0135x elapsed=0:01:12.37    \nframe=   51 fps=0.7 q=33.0 size=    1280KiB time=00:00:00.98 bitrate=10700.1kbits/s speed=0.0134x elapsed=0:01:12.93    \nframe=   51 fps=0.7 q=33.0 size=    1280KiB time=00:00:00.98 bitrate=10700.1kbits/s speed=0.0133x elapsed=0:01:13.45    \nframe=   51 fps=0.7 q=33.0 size=    1280KiB time=00:00:00.98 bitrate=10700.1kbits/s speed=0.0132x elapsed=0:01:13.99    \nframe=   52 fps=0.7 q=32.9 size=    1280KiB time=00:00:01.00 bitrate=10486.1kbits/s speed=0.0134x elapsed=0:01:14.53    \nframe=   52 fps=0.7 q=32.9 size=    1280KiB time=00:00:01.00 bitrate=10486.1kbits/s speed=0.0133x elapsed=0:01:15.07    \nframe=   52 fps=0.7 q=32.9 size=    1280KiB time=00:00:01.00 bitrate=10486.1kbits/s speed=0.0132x elapsed=0:01:15.61    \nframe=   54 fps=0.7 q=25.3 size=    1280KiB time=00:00:01.04 bitrate=10082.8kbits/s speed=0.0137x elapsed=0:01:16.15    \nframe=   55 fps=0.7 q=29.7 size=    1536KiB time=00:00:01.06 bitrate=11871.0kbits/s speed=0.0138x elapsed=0:01:16.65    \nframe=   56 fps=0.7 q=33.8 size=    1536KiB time=00:00:01.08 bitrate=11651.2kbits/s speed=0.014x elapsed=0:01:17.17    \nframe=   56 fps=0.7 q=33.8 size=    1536KiB time=00:00:01.08 bitrate=11651.2kbits/s speed=0.0139x elapsed=0:01:17.69    \nframe=   56 fps=0.7 q=33.8 size=    1536KiB time=00:00:01.08 bitrate=11651.2kbits/s speed=0.0138x elapsed=0:01:18.22    \nframe=   56 fps=0.7 q=33.8 size=    1536KiB time=00:00:01.08 bitrate=11651.2kbits/s speed=0.0137x elapsed=0:01:18.73    \nframe=   56 fps=0.7 q=33.8 size=    1536KiB time=00:00:01.08 bitrate=11651.2kbits/s speed=0.0136x elapsed=0:01:19.29    \nframe=   56 fps=0.7 q=33.8 size=    1536KiB time=00:00:01.08 bitrate=11651.2kbits/s speed=0.0135x elapsed=0:01:19.88    \nframe=   56 fps=0.7 q=33.8 size=    1536KiB time=00:00:01.08 bitrate=11651.2kbits/s speed=0.0134x elapsed=0:01:20.49    \nframe=   57 fps=0.7 q=32.7 size=    1536KiB time=00:00:01.10 bitrate=11439.3kbits/s speed=0.0136x elapsed=0:01:21.04    \nframe=   58 fps=0.7 q=33.0 size=    1536KiB time=00:00:01.12 bitrate=11235.1kbits/s speed=0.0137x elapsed=0:01:21.56    \nframe=   58 fps=0.7 q=33.0 size=    1536KiB time=00:00:01.12 bitrate=11235.1kbits/s speed=0.0136x elapsed=0:01:22.09    \nframe=   58 fps=0.7 q=33.0 size=    1536KiB time=00:00:01.12 bitrate=11235.1kbits/s speed=0.0136x elapsed=0:01:22.64    \nframe=   58 fps=0.7 q=33.0 size=    1536KiB time=00:00:01.12 bitrate=11235.1kbits/s speed=0.0135x elapsed=0:01:23.16    \nframe=   59 fps=0.7 q=25.3 size=    1536KiB time=00:00:01.14 bitrate=11038.0kbits/s speed=0.0136x elapsed=0:01:23.72    \nframe=   59 fps=0.7 q=25.3 size=    1536KiB time=00:00:01.14 bitrate=11038.0kbits/s speed=0.0135x elapsed=0:01:24.24    \nframe=   60 fps=0.7 q=31.9 size=    1536KiB time=00:00:01.16 bitrate=10847.6kbits/s speed=0.0137x elapsed=0:01:24.77    \nframe=   60 fps=0.7 q=31.9 size=    1536KiB time=00:00:01.16 bitrate=10847.6kbits/s speed=0.0136x elapsed=0:01:25.33    \nframe=   60 fps=0.7 q=31.9 size=    1536KiB time=00:00:01.16 bitrate=10847.6kbits/s speed=0.0135x elapsed=0:01:25.85    \nframe=   61 fps=0.7 q=32.9 size=    1536KiB time=00:00:01.18 bitrate=10663.8kbits/s speed=0.0137x elapsed=0:01:26.42    \nframe=   61 fps=0.7 q=32.9 size=    1536KiB time=00:00:01.18 bitrate=10663.8kbits/s speed=0.0136x elapsed=0:01:26.94    \nframe=   61 fps=0.7 q=32.9 size=    1536KiB time=00:00:01.18 bitrate=10663.8kbits/s speed=0.0135x elapsed=0:01:27.50    \nframe=   61 fps=0.7 q=32.9 size=    1536KiB time=00:00:01.18 bitrate=10663.8kbits/s speed=0.0134x elapsed=0:01:28.05    \nframe=   61 fps=0.7 q=32.9 size=    1536KiB time=00:00:01.18 bitrate=10663.8kbits/s speed=0.0133x elapsed=0:01:28.62    \nframe=   61 fps=0.7 q=32.9 size=    1536KiB time=00:00:01.18 bitrate=10663.8kbits/s speed=0.0132x elapsed=0:01:29.15    \nframe=   61 fps=0.7 q=32.9 size=    1536KiB time=00:00:01.18 bitrate=10663.8kbits/s speed=0.0132x elapsed=0:01:29.68    \nframe=   61 fps=0.7 q=32.9 size=    1536KiB time=00:00:01.18 bitrate=10663.8kbits/s speed=0.0131x elapsed=0:01:30.23    \nframe=   61 fps=0.7 q=32.9 size=    1536KiB time=00:00:01.18 bitrate=10663.8kbits/s speed=0.013x elapsed=0:01:30.77    \nframe=   62 fps=0.7 q=32.7 size=    1536KiB time=00:00:01.20 bitrate=10486.1kbits/s speed=0.0131x elapsed=0:01:31.33    \nframe=   62 fps=0.7 q=32.7 size=    1536KiB time=00:00:01.20 bitrate=10486.1kbits/s speed=0.0131x elapsed=0:01:31.86    \nframe=   63 fps=0.7 q=32.8 size=    1536KiB time=00:00:01.22 bitrate=10314.2kbits/s speed=0.0132x elapsed=0:01:32.44    \nframe=   63 fps=0.7 q=32.8 size=    1536KiB time=00:00:01.22 bitrate=10314.2kbits/s speed=0.0131x elapsed=0:01:32.98    \nframe=   64 fps=0.7 q=25.2 size=    1536KiB time=00:00:01.24 bitrate=10147.8kbits/s speed=0.0133x elapsed=0:01:33.56    \nframe=   64 fps=0.7 q=25.2 size=    1536KiB time=00:00:01.24 bitrate=10147.8kbits/s speed=0.0132x elapsed=0:01:34.09    \nframe=   65 fps=0.7 q=31.8 size=    1792KiB time=00:00:01.26 bitrate=11651.1kbits/s speed=0.0133x elapsed=0:01:34.65    \nframe=   65 fps=0.7 q=31.8 size=    1792KiB time=00:00:01.26 bitrate=11651.1kbits/s speed=0.0132x elapsed=0:01:35.22    \nframe=   65 fps=0.7 q=31.8 size=    1792KiB time=00:00:01.26 bitrate=11651.1kbits/s speed=0.0132x elapsed=0:01:35.74    \nframe=   65 fps=0.7 q=31.8 size=    1792KiB time=00:00:01.26 bitrate=11651.1kbits/s speed=0.0131x elapsed=0:01:36.26    \nframe=   66 fps=0.7 q=32.9 size=    1792KiB time=00:00:01.28 bitrate=11469.1kbits/s speed=0.0132x elapsed=0:01:36.78    \nframe=   66 fps=0.7 q=32.9 size=    1792KiB time=00:00:01.28 bitrate=11469.1kbits/s speed=0.0132x elapsed=0:01:37.30    \nframe=   66 fps=0.7 q=32.9 size=    1792KiB time=00:00:01.28 bitrate=11469.1kbits/s speed=0.0131x elapsed=0:01:37.83    \nframe=   66 fps=0.7 q=32.9 size=    1792KiB time=00:00:01.28 bitrate=11469.1kbits/s speed=0.013x elapsed=0:01:38.35    \nframe=   66 fps=0.7 q=32.9 size=    1792KiB time=00:00:01.28 bitrate=11469.1kbits/s speed=0.0129x elapsed=0:01:38.85    \nframe=   67 fps=0.7 q=32.7 size=    1792KiB time=00:00:01.30 bitrate=11292.6kbits/s speed=0.0131x elapsed=0:01:39.37    \nframe=   67 fps=0.7 q=32.7 size=    1792KiB time=00:00:01.30 bitrate=11292.6kbits/s speed=0.013x elapsed=0:01:39.89    \nframe=   68 fps=0.7 q=32.7 size=    1792KiB time=00:00:01.32 bitrate=11121.5kbits/s speed=0.0131x elapsed=0:01:40.40    \nframe=   68 fps=0.7 q=32.7 size=    1792KiB time=00:00:01.32 bitrate=11121.5kbits/s speed=0.0131x elapsed=0:01:40.92    \nframe=   69 fps=0.7 q=25.1 size=    1792KiB time=00:00:01.34 bitrate=10955.5kbits/s speed=0.0132x elapsed=0:01:41.43    \nframe=   69 fps=0.7 q=25.1 size=    1792KiB time=00:00:01.34 bitrate=10955.5kbits/s speed=0.0131x elapsed=0:01:42.01    \nframe=   69 fps=0.7 q=25.1 size=    1792KiB time=00:00:01.34 bitrate=10955.5kbits/s speed=0.0131x elapsed=0:01:42.56    \nframe=   69 fps=0.7 q=25.1 size=    1792KiB time=00:00:01.34 bitrate=10955.5kbits/s speed=0.013x elapsed=0:01:43.13    \nframe=   70 fps=0.7 q=31.8 size=    1792KiB time=00:00:01.36 bitrate=10794.4kbits/s speed=0.0131x elapsed=0:01:43.67    \nframe=   70 fps=0.7 q=31.8 size=    1792KiB time=00:00:01.36 bitrate=10794.4kbits/s speed=0.013x elapsed=0:01:44.22    \nframe=   70 fps=0.7 q=31.8 size=    1792KiB time=00:00:01.36 bitrate=10794.4kbits/s speed=0.013x elapsed=0:01:44.81    \nframe=   70 fps=0.7 q=31.8 size=    1792KiB time=00:00:01.36 bitrate=10794.4kbits/s speed=0.0129x elapsed=0:01:45.36    \nframe=   70 fps=0.7 q=31.8 size=    1792KiB time=00:00:01.36 bitrate=10794.4kbits/s speed=0.0128x elapsed=0:01:45.87    \nframe=   70 fps=0.7 q=31.8 size=    1792KiB time=00:00:01.36 bitrate=10794.4kbits/s speed=0.0128x elapsed=0:01:46.41    \nframe=   70 fps=0.7 q=31.8 size=    1792KiB time=00:00:01.36 bitrate=10794.4kbits/s speed=0.0127x elapsed=0:01:46.96    \nframe=   71 fps=0.7 q=32.8 size=    1792KiB time=00:00:01.38 bitrate=10638.0kbits/s speed=0.0128x elapsed=0:01:47.48    \nframe=   71 fps=0.7 q=32.8 size=    1792KiB time=00:00:01.38 bitrate=10638.0kbits/s speed=0.0128x elapsed=0:01:48.02    \nframe=   71 fps=0.7 q=32.8 size=    1792KiB time=00:00:01.38 bitrate=10638.0kbits/s speed=0.0127x elapsed=0:01:48.54    \nframe=   71 fps=0.7 q=32.8 size=    1792KiB time=00:00:01.38 bitrate=10638.0kbits/s speed=0.0127x elapsed=0:01:49.08    \nframe=   71 fps=0.6 q=32.8 size=    1792KiB time=00:00:01.38 bitrate=10638.0kbits/s speed=0.0126x elapsed=0:01:49.59    \nframe=   72 fps=0.7 q=31.8 size=    1792KiB time=00:00:01.40 bitrate=10486.0kbits/s speed=0.0127x elapsed=0:01:50.12    \nframe=   72 fps=0.7 q=31.8 size=    1792KiB time=00:00:01.40 bitrate=10486.0kbits/s speed=0.0127x elapsed=0:01:50.65    \nframe=   73 fps=0.7 q=31.8 size=    1792KiB time=00:00:01.42 bitrate=10338.3kbits/s speed=0.0128x elapsed=0:01:51.15    \nframe=   74 fps=0.7 q=24.8 size=    1792KiB time=00:00:01.44 bitrate=10194.7kbits/s speed=0.0129x elapsed=0:01:51.67    \nframe=   76 fps=0.7 q=32.8 size=    2048KiB time=00:00:01.48 bitrate=11336.2kbits/s speed=0.0132x elapsed=0:01:52.19    \nframe=   76 fps=0.7 q=32.8 size=    2048KiB time=00:00:01.48 bitrate=11336.2kbits/s speed=0.0131x elapsed=0:01:52.69    \nframe=   76 fps=0.7 q=32.8 size=    2048KiB time=00:00:01.48 bitrate=11336.2kbits/s speed=0.0131x elapsed=0:01:53.21    \nframe=   76 fps=0.7 q=32.8 size=    2048KiB time=00:00:01.48 bitrate=11336.2kbits/s speed=0.013x elapsed=0:01:53.74    \nframe=   77 fps=0.7 q=32.9 size=    2048KiB time=00:00:01.50 bitrate=11185.0kbits/s speed=0.0131x elapsed=0:01:54.24    \nframe=   78 fps=0.7 q=32.9 size=    2048KiB time=00:00:01.52 bitrate=11037.9kbits/s speed=0.0132x elapsed=0:01:54.76    \nframe=   79 fps=0.7 q=25.2 size=    2048KiB time=00:00:01.54 bitrate=10894.5kbits/s speed=0.0134x elapsed=0:01:55.29    \nframe=   80 fps=0.7 q=31.8 size=    2048KiB time=00:00:01.56 bitrate=10754.9kbits/s speed=0.0135x elapsed=0:01:55.79    \nframe=   80 fps=0.7 q=31.8 size=    2048KiB time=00:00:01.56 bitrate=10754.9kbits/s speed=0.0134x elapsed=0:01:56.31    \nframe=   81 fps=0.7 q=32.9 size=    2048KiB time=00:00:01.58 bitrate=10618.7kbits/s speed=0.0135x elapsed=0:01:56.84    \nframe=   82 fps=0.7 q=32.9 size=    2048KiB time=00:00:01.60 bitrate=10486.0kbits/s speed=0.0136x elapsed=0:01:57.36    \nframe=   83 fps=0.7 q=33.0 size=    2048KiB time=00:00:01.62 bitrate=10356.5kbits/s speed=0.0137x elapsed=0:01:57.88    \nframe=   84 fps=0.7 q=25.3 size=    2048KiB time=00:00:01.64 bitrate=10230.2kbits/s speed=0.0139x elapsed=0:01:58.39    \nframe=   85 fps=0.7 q=31.8 size=    2304KiB time=00:00:01.66 bitrate=11370.3kbits/s speed=0.014x elapsed=0:01:58.91    \nframe=   86 fps=0.7 q=33.0 size=    2304KiB time=00:00:01.68 bitrate=11235.0kbits/s speed=0.0141x elapsed=0:01:59.41    \nframe=   86 fps=0.7 q=33.0 size=    2304KiB time=00:00:01.68 bitrate=11235.0kbits/s speed=0.014x elapsed=0:01:59.94    \nframe=   86 fps=0.7 q=33.0 size=    2304KiB time=00:00:01.68 bitrate=11235.0kbits/s speed=0.0139x elapsed=0:02:00.46    \nframe=   87 fps=0.7 q=32.7 size=    2304KiB time=00:00:01.70 bitrate=11102.8kbits/s speed=0.0141x elapsed=0:02:00.96    \nframe=   88 fps=0.7 q=32.9 size=    2304KiB time=00:00:01.72 bitrate=10973.7kbits/s speed=0.0142x elapsed=0:02:01.48    \nframe=   90 fps=0.7 q=30.9 size=    2304KiB time=00:00:01.76 bitrate=10724.3kbits/s speed=0.0144x elapsed=0:02:02.01    \nframe=   90 fps=0.7 q=30.9 size=    2304KiB time=00:00:01.76 bitrate=10724.3kbits/s speed=0.0144x elapsed=0:02:02.51    \nframe=   91 fps=0.7 q=34.0 size=    2560KiB time=00:00:01.78 bitrate=11782.0kbits/s speed=0.0145x elapsed=0:02:03.03    \nframe=   92 fps=0.7 q=33.9 size=    2560KiB time=00:00:01.80 bitrate=11651.0kbits/s speed=0.0146x elapsed=0:02:03.54    \nframe=   93 fps=0.7 q=25.1 size=    2560KiB time=00:00:01.82 bitrate=11523.0kbits/s speed=0.0147x elapsed=0:02:04.06    \nframe=   93 fps=0.7 q=25.1 size=    2560KiB time=00:00:01.82 bitrate=11523.0kbits/s speed=0.0146x elapsed=0:02:04.58    \nframe=   93 fps=0.7 q=25.1 size=    2560KiB time=00:00:01.82 bitrate=11523.0kbits/s speed=0.0145x elapsed=0:02:05.10    \nframe=   94 fps=0.7 q=32.7 size=    2560KiB time=00:00:01.84 bitrate=11397.8kbits/s speed=0.0146x elapsed=0:02:05.62    \nframe=   94 fps=0.7 q=32.7 size=    2560KiB time=00:00:01.84 bitrate=11397.8kbits/s speed=0.0146x elapsed=0:02:06.13    \nframe=   95 fps=0.8 q=33.9 size=    2560KiB time=00:00:01.86 bitrate=11275.2kbits/s speed=0.0147x elapsed=0:02:06.65    \nframe=   97 fps=0.8 q=26.7 size=    2816KiB time=00:00:01.90 bitrate=12141.6kbits/s speed=0.0149x elapsed=0:02:07.17    \nframe=   98 fps=0.8 q=33.9 size=    2816KiB time=00:00:01.92 bitrate=12015.1kbits/s speed=0.015x elapsed=0:02:07.68    \nframe=   98 fps=0.8 q=33.9 size=    2816KiB time=00:00:01.92 bitrate=12015.1kbits/s speed=0.015x elapsed=0:02:08.20    \nframe=   98 fps=0.8 q=33.9 size=    2816KiB time=00:00:01.92 bitrate=12015.1kbits/s speed=0.0149x elapsed=0:02:08.72    \nframe=   99 fps=0.8 q=34.0 size=    2816KiB time=00:00:01.94 bitrate=11891.2kbits/s speed=0.015x elapsed=0:02:09.23    \nframe=  101 fps=0.8 q=25.7 size=    2816KiB time=00:00:01.98 bitrate=11651.0kbits/s speed=0.0153x elapsed=0:02:09.75    \nframe=  102 fps=0.8 q=28.0 size=    2816KiB time=00:00:02.00 bitrate=11534.5kbits/s speed=0.0154x elapsed=0:02:10.26    \nframe=  103 fps=0.8 q=35.0 size=    2816KiB time=00:00:02.02 bitrate=11420.3kbits/s speed=0.0154x elapsed=0:02:10.78    \nframe=  103 fps=0.8 q=35.0 size=    2816KiB time=00:00:02.02 bitrate=11420.3kbits/s speed=0.0154x elapsed=0:02:11.30    \nframe=  104 fps=0.8 q=35.0 size=    2816KiB time=00:00:02.04 bitrate=11308.3kbits/s speed=0.0155x elapsed=0:02:11.81    \nframe=  105 fps=0.8 q=34.9 size=    2816KiB time=00:00:02.06 bitrate=11198.6kbits/s speed=0.0156x elapsed=0:02:12.33    \nframe=  106 fps=0.8 q=25.8 size=    2816KiB time=00:00:02.08 bitrate=11090.9kbits/s speed=0.0157x elapsed=0:02:12.85    \nframe=  108 fps=0.8 q=34.9 size=    3072KiB time=00:00:02.12 bitrate=11870.8kbits/s speed=0.0159x elapsed=0:02:13.35    \nframe=  109 fps=0.8 q=35.0 size=    3072KiB time=00:00:02.14 bitrate=11759.9kbits/s speed=0.016x elapsed=0:02:13.88    \nframe=  109 fps=0.8 q=35.0 size=    3072KiB time=00:00:02.14 bitrate=11759.9kbits/s speed=0.0159x elapsed=0:02:14.40    \nframe=  109 fps=0.8 q=35.0 size=    3072KiB time=00:00:02.14 bitrate=11759.9kbits/s speed=0.0159x elapsed=0:02:14.92    \nframe=  109 fps=0.8 q=35.0 size=    3072KiB time=00:00:02.14 bitrate=11759.9kbits/s speed=0.0158x elapsed=0:02:15.44    \nframe=  109 fps=0.8 q=35.0 size=    3072KiB time=00:00:02.14 bitrate=11759.9kbits/s speed=0.0157x elapsed=0:02:15.98    \nframe=  109 fps=0.8 q=35.0 size=    3072KiB time=00:00:02.14 bitrate=11759.9kbits/s speed=0.0157x elapsed=0:02:16.51    \nframe=  110 fps=0.8 q=34.8 size=    3072KiB time=00:00:02.16 bitrate=11651.0kbits/s speed=0.0158x elapsed=0:02:17.03    \nframe=  110 fps=0.8 q=34.8 size=    3072KiB time=00:00:02.16 bitrate=11651.0kbits/s speed=0.0157x elapsed=0:02:17.58    \nframe=  110 fps=0.8 q=34.8 size=    3072KiB time=00:00:02.16 bitrate=11651.0kbits/s speed=0.0156x elapsed=0:02:18.11    \nframe=  111 fps=0.8 q=25.7 size=    3072KiB time=00:00:02.18 bitrate=11544.1kbits/s speed=0.0157x elapsed=0:02:18.64    \nframe=  111 fps=0.8 q=25.7 size=    3072KiB time=00:00:02.18 bitrate=11544.1kbits/s speed=0.0157x elapsed=0:02:19.18    \nframe=  112 fps=0.8 q=32.4 size=    3072KiB time=00:00:02.20 bitrate=11439.2kbits/s speed=0.0157x elapsed=0:02:19.70    \nframe=  112 fps=0.8 q=32.4 size=    3072KiB time=00:00:02.20 bitrate=11439.2kbits/s speed=0.0157x elapsed=0:02:20.22    \nframe=  113 fps=0.8 q=34.9 size=    3072KiB time=00:00:02.22 bitrate=11336.1kbits/s speed=0.0158x elapsed=0:02:20.76    \nframe=  113 fps=0.8 q=34.9 size=    3072KiB time=00:00:02.22 bitrate=11336.1kbits/s speed=0.0157x elapsed=0:02:21.28    \nframe=  114 fps=0.8 q=34.9 size=    3072KiB time=00:00:02.24 bitrate=11234.9kbits/s speed=0.0158x elapsed=0:02:21.81    \nframe=  114 fps=0.8 q=34.9 size=    3072KiB time=00:00:02.24 bitrate=11234.9kbits/s speed=0.0157x elapsed=0:02:22.33    \nframe=  115 fps=0.8 q=33.9 size=    3072KiB time=00:00:02.26 bitrate=11135.5kbits/s speed=0.0158x elapsed=0:02:22.86    \nframe=  115 fps=0.8 q=33.9 size=    3072KiB time=00:00:02.26 bitrate=11135.5kbits/s speed=0.0158x elapsed=0:02:23.39    \nframe=  115 fps=0.8 q=33.9 size=    3072KiB time=00:00:02.26 bitrate=11135.5kbits/s speed=0.0157x elapsed=0:02:23.94    \nframe=  115 fps=0.8 q=33.9 size=    3072KiB time=00:00:02.26 bitrate=11135.5kbits/s speed=0.0156x elapsed=0:02:24.45    \nframe=  116 fps=0.8 q=25.5 size=    3072KiB time=00:00:02.28 bitrate=11037.8kbits/s speed=0.0157x elapsed=0:02:24.97    \nframe=  116 fps=0.8 q=25.5 size=    3072KiB time=00:00:02.28 bitrate=11037.8kbits/s speed=0.0157x elapsed=0:02:25.50    \nframe=  117 fps=0.8 q=32.8 size=    3328KiB time=00:00:02.30 bitrate=11853.6kbits/s speed=0.0158x elapsed=0:02:26.01    \nframe=  118 fps=0.8 q=34.0 size=    3328KiB time=00:00:02.32 bitrate=11751.4kbits/s speed=0.0158x elapsed=0:02:26.53    \nframe=  118 fps=0.8 q=34.0 size=    3328KiB time=00:00:02.32 bitrate=11751.4kbits/s speed=0.0158x elapsed=0:02:27.07    \nframe=  118 fps=0.8 q=34.0 size=    3328KiB time=00:00:02.32 bitrate=11751.4kbits/s speed=0.0157x elapsed=0:02:27.59    \nframe=  118 fps=0.8 q=34.0 size=    3328KiB time=00:00:02.32 bitrate=11751.4kbits/s speed=0.0157x elapsed=0:02:28.13    \nframe=  118 fps=0.8 q=34.0 size=    3328KiB time=00:00:02.32 bitrate=11751.4kbits/s speed=0.0156x elapsed=0:02:28.65    \nframe=  119 fps=0.8 q=33.8 size=    3328KiB time=00:00:02.34 bitrate=11651.0kbits/s speed=0.0157x elapsed=0:02:29.19    \nframe=  119 fps=0.8 q=33.8 size=    3328KiB time=00:00:02.34 bitrate=11651.0kbits/s speed=0.0156x elapsed=0:02:29.73    \nframe=  119 fps=0.8 q=33.8 size=    3328KiB time=00:00:02.34 bitrate=11651.0kbits/s speed=0.0156x elapsed=0:02:30.27    \nframe=  120 fps=0.8 q=33.9 size=    3328KiB time=00:00:02.36 bitrate=11552.3kbits/s speed=0.0157x elapsed=0:02:30.78    \nframe=  120 fps=0.8 q=33.9 size=    3328KiB time=00:00:02.36 bitrate=11552.3kbits/s speed=0.0156x elapsed=0:02:31.30    \nframe=  120 fps=0.8 q=33.9 size=    3328KiB time=00:00:02.36 bitrate=11552.3kbits/s speed=0.0155x elapsed=0:02:31.83    \nframe=  121 fps=0.8 q=25.6 size=    3328KiB time=00:00:02.38 bitrate=11455.2kbits/s speed=0.0156x elapsed=0:02:32.36    \nframe=  121 fps=0.8 q=25.6 size=    3328KiB time=00:00:02.38 bitrate=11455.2kbits/s speed=0.0156x elapsed=0:02:32.88    \nframe=  122 fps=0.8 q=32.6 size=    3328KiB time=00:00:02.40 bitrate=11359.7kbits/s speed=0.0156x elapsed=0:02:33.40    \nframe=  122 fps=0.8 q=32.6 size=    3328KiB time=00:00:02.40 bitrate=11359.7kbits/s speed=0.0156x elapsed=0:02:33.95    \nframe=  123 fps=0.8 q=33.9 size=    3328KiB time=00:00:02.42 bitrate=11265.8kbits/s speed=0.0157x elapsed=0:02:34.50    \nframe=  123 fps=0.8 q=33.9 size=    3328KiB time=00:00:02.42 bitrate=11265.8kbits/s speed=0.0156x elapsed=0:02:35.01    \nframe=  123 fps=0.8 q=33.9 size=    3328KiB time=00:00:02.42 bitrate=11265.8kbits/s speed=0.0156x elapsed=0:02:35.54    \nframe=  124 fps=0.8 q=33.9 size=    3328KiB time=00:00:02.44 bitrate=11173.5kbits/s speed=0.0156x elapsed=0:02:36.09    \nframe=  124 fps=0.8 q=33.9 size=    3328KiB time=00:00:02.44 bitrate=11173.5kbits/s speed=0.0156x elapsed=0:02:36.64    \nframe=  124 fps=0.8 q=33.9 size=    3328KiB time=00:00:02.44 bitrate=11173.5kbits/s speed=0.0155x elapsed=0:02:37.16    \nframe=  124 fps=0.8 q=33.9 size=    3328KiB time=00:00:02.44 bitrate=11173.5kbits/s speed=0.0155x elapsed=0:02:37.70    \nframe=  125 fps=0.8 q=33.9 size=    3328KiB time=00:00:02.46 bitrate=11082.7kbits/s speed=0.0155x elapsed=0:02:38.24    \nframe=  125 fps=0.8 q=33.9 size=    3328KiB time=00:00:02.46 bitrate=11082.7kbits/s speed=0.0155x elapsed=0:02:38.77    \nframe=  125 fps=0.8 q=33.9 size=    3328KiB time=00:00:02.46 bitrate=11082.7kbits/s speed=0.0154x elapsed=0:02:39.28    \nframe=  126 fps=0.8 q=25.5 size=    3328KiB time=00:00:02.48 bitrate=10993.3kbits/s speed=0.0155x elapsed=0:02:39.80    \nframe=  127 fps=0.8 q=32.9 size=    3584KiB time=00:00:02.50 bitrate=11744.2kbits/s speed=0.0156x elapsed=0:02:40.31    \nframe=  127 fps=0.8 q=32.9 size=    3584KiB time=00:00:02.50 bitrate=11744.2kbits/s speed=0.0155x elapsed=0:02:40.84    \nframe=  128 fps=0.8 q=33.9 size=    3584KiB time=00:00:02.52 bitrate=11651.0kbits/s speed=0.0156x elapsed=0:02:41.35    \nframe=  128 fps=0.8 q=33.9 size=    3584KiB time=00:00:02.52 bitrate=11651.0kbits/s speed=0.0156x elapsed=0:02:41.87    \nframe=  128 fps=0.8 q=33.9 size=    3584KiB time=00:00:02.52 bitrate=11651.0kbits/s speed=0.0155x elapsed=0:02:42.40    \nframe=  128 fps=0.8 q=33.9 size=    3584KiB time=00:00:02.52 bitrate=11651.0kbits/s speed=0.0155x elapsed=0:02:42.94    \nframe=  128 fps=0.8 q=33.9 size=    3584KiB time=00:00:02.52 bitrate=11651.0kbits/s speed=0.0154x elapsed=0:02:43.47    \nframe=  129 fps=0.8 q=33.8 size=    3584KiB time=00:00:02.54 bitrate=11559.2kbits/s speed=0.0155x elapsed=0:02:44.00    \nframe=  130 fps=0.8 q=34.0 size=    3584KiB time=00:00:02.56 bitrate=11468.9kbits/s speed=0.0156x elapsed=0:02:44.51    \nframe=  130 fps=0.8 q=34.0 size=    3584KiB time=00:00:02.56 bitrate=11468.9kbits/s speed=0.0155x elapsed=0:02:45.04    \nframe=  130 fps=0.8 q=34.0 size=    3584KiB time=00:00:02.56 bitrate=11468.9kbits/s speed=0.0155x elapsed=0:02:45.57    \nframe=  131 fps=0.8 q=25.4 size=    3584KiB time=00:00:02.58 bitrate=11380.0kbits/s speed=0.0155x elapsed=0:02:46.11    \nframe=  131 fps=0.8 q=25.4 size=    3584KiB time=00:00:02.58 bitrate=11380.0kbits/s speed=0.0155x elapsed=0:02:46.63    \nframe=  131 fps=0.8 q=25.4 size=    3584KiB time=00:00:02.58 bitrate=11380.0kbits/s speed=0.0154x elapsed=0:02:47.15    \nframe=  131 fps=0.8 q=25.4 size=    3584KiB time=00:00:02.58 bitrate=11380.0kbits/s speed=0.0154x elapsed=0:02:47.68    \nframe=  132 fps=0.8 q=32.9 size=    3584KiB time=00:00:02.60 bitrate=11292.5kbits/s speed=0.0155x elapsed=0:02:48.20    \nframe=  133 fps=0.8 q=33.9 size=    3584KiB time=00:00:02.62 bitrate=11206.3kbits/s speed=0.0155x elapsed=0:02:48.72    \nframe=  133 fps=0.8 q=33.9 size=    3584KiB time=00:00:02.62 bitrate=11206.3kbits/s speed=0.0155x elapsed=0:02:49.28    \nframe=  134 fps=0.8 q=33.9 size=    3584KiB time=00:00:02.64 bitrate=11121.4kbits/s speed=0.0155x elapsed=0:02:49.80    \nframe=  134 fps=0.8 q=33.9 size=    3584KiB time=00:00:02.64 bitrate=11121.4kbits/s speed=0.0155x elapsed=0:02:50.31    \nframe=  134 fps=0.8 q=33.9 size=    3584KiB time=00:00:02.64 bitrate=11121.4kbits/s speed=0.0155x elapsed=0:02:50.84    \nframe=  134 fps=0.8 q=33.9 size=    3584KiB time=00:00:02.64 bitrate=11121.4kbits/s speed=0.0154x elapsed=0:02:51.36    \nframe=  135 fps=0.8 q=33.9 size=    3584KiB time=00:00:02.66 bitrate=11037.8kbits/s speed=0.0155x elapsed=0:02:51.87    \nframe=  135 fps=0.8 q=33.9 size=    3584KiB time=00:00:02.66 bitrate=11037.8kbits/s speed=0.0154x elapsed=0:02:52.39    \nframe=  136 fps=0.8 q=25.2 size=    3584KiB time=00:00:02.68 bitrate=10955.4kbits/s speed=0.0155x elapsed=0:02:52.91    \nframe=  136 fps=0.8 q=25.2 size=    3584KiB time=00:00:02.68 bitrate=10955.4kbits/s speed=0.0155x elapsed=0:02:53.43    \nframe=  137 fps=0.8 q=32.4 size=    3840KiB time=00:00:02.70 bitrate=11651.0kbits/s speed=0.0155x elapsed=0:02:53.96    \nframe=  138 fps=0.8 q=33.9 size=    3840KiB time=00:00:02.72 bitrate=11565.3kbits/s speed=0.0156x elapsed=0:02:54.46    \nframe=  138 fps=0.8 q=33.9 size=    3840KiB time=00:00:02.72 bitrate=11565.3kbits/s speed=0.0155x elapsed=0:02:54.98    \nframe=  139 fps=0.8 q=34.0 size=    3840KiB time=00:00:02.74 bitrate=11480.9kbits/s speed=0.0156x elapsed=0:02:55.50    \nframe=  139 fps=0.8 q=34.0 size=    3840KiB time=00:00:02.74 bitrate=11480.9kbits/s speed=0.0156x elapsed=0:02:56.07    \nframe=  139 fps=0.8 q=34.0 size=    3840KiB time=00:00:02.74 bitrate=11480.9kbits/s speed=0.0155x elapsed=0:02:56.62    \nframe=  139 fps=0.8 q=34.0 size=    3840KiB time=00:00:02.74 bitrate=11480.9kbits/s speed=0.0155x elapsed=0:02:57.13    \nframe=  139 fps=0.8 q=34.0 size=    3840KiB time=00:00:02.74 bitrate=11480.9kbits/s speed=0.0154x elapsed=0:02:57.66    \nframe=  140 fps=0.8 q=25.2 size=    3840KiB time=00:00:02.76 bitrate=11397.7kbits/s speed=0.0155x elapsed=0:02:58.21    \nframe=  141 fps=0.8 q=30.6 size=    3840KiB time=00:00:02.78 bitrate=11315.7kbits/s speed=0.0156x elapsed=0:02:58.71    \nframe=  141 fps=0.8 q=30.6 size=    3840KiB time=00:00:02.78 bitrate=11315.7kbits/s speed=0.0155x elapsed=0:02:59.24    \nframe=  142 fps=0.8 q=32.9 size=    3840KiB time=00:00:02.80 bitrate=11234.9kbits/s speed=0.0156x elapsed=0:02:59.76    \nframe=  142 fps=0.8 q=32.9 size=    3840KiB time=00:00:02.80 bitrate=11234.9kbits/s speed=0.0155x elapsed=0:03:00.32    \nframe=  142 fps=0.8 q=32.9 size=    3840KiB time=00:00:02.80 bitrate=11234.9kbits/s speed=0.0155x elapsed=0:03:00.88    \nframe=  142 fps=0.8 q=32.9 size=    3840KiB time=00:00:02.80 bitrate=11234.9kbits/s speed=0.0154x elapsed=0:03:01.43    \nframe=  143 fps=0.8 q=32.9 size=    3840KiB time=00:00:02.82 bitrate=11155.2kbits/s speed=0.0155x elapsed=0:03:01.96    \nframe=  144 fps=0.8 q=32.8 size=    3840KiB time=00:00:02.84 bitrate=11076.6kbits/s speed=0.0156x elapsed=0:03:02.49    \nframe=  144 fps=0.8 q=32.8 size=    3840KiB time=00:00:02.84 bitrate=11076.6kbits/s speed=0.0155x elapsed=0:03:03.01    \nframe=  144 fps=0.8 q=32.8 size=    3840KiB time=00:00:02.84 bitrate=11076.6kbits/s speed=0.0155x elapsed=0:03:03.55    \nframe=  144 fps=0.8 q=32.8 size=    3840KiB time=00:00:02.84 bitrate=11076.6kbits/s speed=0.0154x elapsed=0:03:04.09    \nframe=  144 fps=0.8 q=32.8 size=    3840KiB time=00:00:02.84 bitrate=11076.6kbits/s speed=0.0154x elapsed=0:03:04.62    \nframe=  144 fps=0.8 q=32.8 size=    3840KiB time=00:00:02.84 bitrate=11076.6kbits/s speed=0.0153x elapsed=0:03:05.15    \nframe=  144 fps=0.8 q=32.8 size=    3840KiB time=00:00:02.84 bitrate=11076.6kbits/s speed=0.0153x elapsed=0:03:05.70    \nframe=  146 fps=0.8 q=30.6 size=    4096KiB time=00:00:02.88 bitrate=11651.0kbits/s speed=0.0155x elapsed=0:03:06.22    \nframe=  146 fps=0.8 q=30.6 size=    4096KiB time=00:00:02.88 bitrate=11651.0kbits/s speed=0.0154x elapsed=0:03:06.75    \nframe=  146 fps=0.8 q=30.6 size=    4096KiB time=00:00:02.88 bitrate=11651.0kbits/s speed=0.0154x elapsed=0:03:07.27    \nframe=  147 fps=0.8 q=33.9 size=    4096KiB time=00:00:02.90 bitrate=11570.6kbits/s speed=0.0154x elapsed=0:03:07.79    \nframe=  147 fps=0.8 q=33.9 size=    4096KiB time=00:00:02.90 bitrate=11570.6kbits/s speed=0.0154x elapsed=0:03:08.30    \nframe=  147 fps=0.8 q=33.9 size=    4096KiB time=00:00:02.90 bitrate=11570.6kbits/s speed=0.0154x elapsed=0:03:08.83    \nframe=  147 fps=0.8 q=33.9 size=    4096KiB time=00:00:02.90 bitrate=11570.6kbits/s speed=0.0153x elapsed=0:03:09.35    \nframe=  148 fps=0.8 q=33.8 size=    4096KiB time=00:00:02.92 bitrate=11491.4kbits/s speed=0.0154x elapsed=0:03:09.89    \nframe=  148 fps=0.8 q=33.8 size=    4096KiB time=00:00:02.92 bitrate=11491.4kbits/s speed=0.0153x elapsed=0:03:10.41    \nframe=  148 fps=0.8 q=33.8 size=    4096KiB time=00:00:02.92 bitrate=11491.4kbits/s speed=0.0153x elapsed=0:03:10.94    \nframe=  148 fps=0.8 q=33.8 size=    4096KiB time=00:00:02.92 bitrate=11491.4kbits/s speed=0.0153x elapsed=0:03:11.45    \nframe=  148 fps=0.8 q=33.8 size=    4096KiB time=00:00:02.92 bitrate=11491.4kbits/s speed=0.0152x elapsed=0:03:11.96    \nframe=  149 fps=0.8 q=25.1 size=    4096KiB time=00:00:02.94 bitrate=11413.2kbits/s speed=0.0153x elapsed=0:03:12.51    \nframe=  150 fps=0.8 q=29.6 size=    4096KiB time=00:00:02.96 bitrate=11336.1kbits/s speed=0.0153x elapsed=0:03:13.04    \nframe=  150 fps=0.8 q=29.6 size=    4096KiB time=00:00:02.96 bitrate=11336.1kbits/s speed=0.0153x elapsed=0:03:13.57    \nframe=  151 fps=0.8 q=32.6 size=    4096KiB time=00:00:02.98 bitrate=11260.0kbits/s speed=0.0154x elapsed=0:03:14.12    \nframe=  152 fps=0.8 q=32.8 size=    4096KiB time=00:00:03.00 bitrate=11184.9kbits/s speed=0.0154x elapsed=0:03:14.64    \nframe=  152 fps=0.8 q=32.8 size=    4096KiB time=00:00:03.00 bitrate=11184.9kbits/s speed=0.0154x elapsed=0:03:15.18    \nframe=  152 fps=0.8 q=32.8 size=    4096KiB time=00:00:03.00 bitrate=11184.9kbits/s speed=0.0153x elapsed=0:03:15.70    \nframe=  152 fps=0.8 q=32.8 size=    4096KiB time=00:00:03.00 bitrate=11184.9kbits/s speed=0.0153x elapsed=0:03:16.24    \nframe=  152 fps=0.8 q=32.8 size=    4096KiB time=00:00:03.00 bitrate=11184.9kbits/s speed=0.0152x elapsed=0:03:16.74    \nframe=  153 fps=0.8 q=32.9 size=    4096KiB time=00:00:03.02 bitrate=11110.9kbits/s speed=0.0153x elapsed=0:03:17.28    \nframe=  153 fps=0.8 q=32.9 size=    4096KiB time=00:00:03.02 bitrate=11110.9kbits/s speed=0.0153x elapsed=0:03:17.80    \nframe=  154 fps=0.8 q=25.2 size=    4096KiB time=00:00:03.04 bitrate=11037.8kbits/s speed=0.0153x elapsed=0:03:18.34    \nframe=  155 fps=0.8 q=26.3 size=    4352KiB time=00:00:03.06 bitrate=11651.0kbits/s speed=0.0154x elapsed=0:03:18.86    \nframe=  155 fps=0.8 q=26.3 size=    4352KiB time=00:00:03.06 bitrate=11651.0kbits/s speed=0.0153x elapsed=0:03:19.39    \nframe=  156 fps=0.8 q=34.0 size=    4352KiB time=00:00:03.08 bitrate=11575.3kbits/s speed=0.0154x elapsed=0:03:19.92    \nframe=  157 fps=0.8 q=33.9 size=    4352KiB time=00:00:03.10 bitrate=11500.6kbits/s speed=0.0155x elapsed=0:03:20.44    \nframe=  157 fps=0.8 q=33.9 size=    4352KiB time=00:00:03.10 bitrate=11500.6kbits/s speed=0.0154x elapsed=0:03:20.96    \nframe=  157 fps=0.8 q=33.9 size=    4352KiB time=00:00:03.10 bitrate=11500.6kbits/s speed=0.0154x elapsed=0:03:21.50    \nframe=  157 fps=0.8 q=33.9 size=    4352KiB time=00:00:03.10 bitrate=11500.6kbits/s speed=0.0153x elapsed=0:03:22.07    \nframe=  157 fps=0.8 q=33.9 size=    4352KiB time=00:00:03.10 bitrate=11500.6kbits/s speed=0.0153x elapsed=0:03:22.58    \nframe=  157 fps=0.8 q=33.9 size=    4352KiB time=00:00:03.10 bitrate=11500.6kbits/s speed=0.0153x elapsed=0:03:23.10    \nframe=  157 fps=0.8 q=33.9 size=    4352KiB time=00:00:03.10 bitrate=11500.6kbits/s speed=0.0152x elapsed=0:03:23.65    \nframe=  158 fps=0.8 q=33.9 size=    4352KiB time=00:00:03.12 bitrate=11426.9kbits/s speed=0.0153x elapsed=0:03:24.17    \nframe=  158 fps=0.8 q=33.9 size=    4352KiB time=00:00:03.12 bitrate=11426.9kbits/s speed=0.0152x elapsed=0:03:24.69    \nframe=  160 fps=0.8 q=31.7 size=    4608KiB time=00:00:03.14 bitrate=12022.0kbits/s speed=0.0153x elapsed=0:03:25.23    \nframe=  160 fps=0.8 q=31.7 size=    4608KiB time=00:00:03.16 bitrate=11945.9kbits/s speed=0.0154x elapsed=0:03:25.78    \nframe=  161 fps=0.8 q=33.9 size=    4608KiB time=00:00:03.18 bitrate=11870.8kbits/s speed=0.0154x elapsed=0:03:26.31    \nframe=  162 fps=0.8 q=33.9 size=    4608KiB time=00:00:03.20 bitrate=11796.6kbits/s speed=0.0155x elapsed=0:03:26.84    \nframe=  162 fps=0.8 q=33.9 size=    4608KiB time=00:00:03.20 bitrate=11796.6kbits/s speed=0.0154x elapsed=0:03:27.36    \nframe=  162 fps=0.8 q=33.9 size=    4608KiB time=00:00:03.20 bitrate=11796.6kbits/s speed=0.0154x elapsed=0:03:27.90    \nframe=  163 fps=0.8 q=34.0 size=    4608KiB time=00:00:03.22 bitrate=11723.3kbits/s speed=0.0154x elapsed=0:03:28.43    \nframe=  163 fps=0.8 q=34.0 size=    4608KiB time=00:00:03.22 bitrate=11723.3kbits/s speed=0.0154x elapsed=0:03:28.97    \nframe=  163 fps=0.8 q=34.0 size=    4608KiB time=00:00:03.22 bitrate=11723.3kbits/s speed=0.0154x elapsed=0:03:29.50    \nframe=  164 fps=0.8 q=25.3 size=    4608KiB time=00:00:03.24 bitrate=11651.0kbits/s speed=0.0154x elapsed=0:03:30.01    \nframe=  164 fps=0.8 q=25.3 size=    4608KiB time=00:00:03.24 bitrate=11651.0kbits/s speed=0.0154x elapsed=0:03:30.53    \nframe=  165 fps=0.8 q=32.4 size=    4608KiB time=00:00:03.26 bitrate=11579.5kbits/s speed=0.0154x elapsed=0:03:31.07    \nframe=  165 fps=0.8 q=32.4 size=    4608KiB time=00:00:03.26 bitrate=11579.5kbits/s speed=0.0154x elapsed=0:03:31.60    \nframe=  166 fps=0.8 q=34.0 size=    4608KiB time=00:00:03.28 bitrate=11508.9kbits/s speed=0.0155x elapsed=0:03:32.13    \nframe=  166 fps=0.8 q=34.0 size=    4608KiB time=00:00:03.28 bitrate=11508.9kbits/s speed=0.0154x elapsed=0:03:32.65    \nframe=  167 fps=0.8 q=34.0 size=    4608KiB time=00:00:03.30 bitrate=11439.1kbits/s speed=0.0155x elapsed=0:03:33.17    \nframe=  167 fps=0.8 q=34.0 size=    4608KiB time=00:00:03.30 bitrate=11439.1kbits/s speed=0.0154x elapsed=0:03:33.68    \nframe=  167 fps=0.8 q=34.0 size=    4608KiB time=00:00:03.30 bitrate=11439.1kbits/s speed=0.0154x elapsed=0:03:34.20    \nframe=  168 fps=0.8 q=25.3 size=    4608KiB time=00:00:03.32 bitrate=11370.2kbits/s speed=0.0155x elapsed=0:03:34.72    \nframe=  169 fps=0.8 q=31.8 size=    4864KiB time=00:00:03.34 bitrate=11930.0kbits/s speed=0.0155x elapsed=0:03:35.24    \nframe=  170 fps=0.8 q=34.0 size=    4864KiB time=00:00:03.36 bitrate=11859.0kbits/s speed=0.0156x elapsed=0:03:35.77    \nframe=  172 fps=0.8 q=33.0 size=    4864KiB time=00:00:03.40 bitrate=11719.5kbits/s speed=0.0157x elapsed=0:03:36.27    \nframe=  172 fps=0.8 q=33.0 size=    4864KiB time=00:00:03.40 bitrate=11719.5kbits/s speed=0.0157x elapsed=0:03:36.80    \nframe=  174 fps=0.8 q=31.8 size=    4864KiB time=00:00:03.44 bitrate=11583.2kbits/s speed=0.0158x elapsed=0:03:37.32    \nframe=  175 fps=0.8 q=34.0 size=    4864KiB time=00:00:03.46 bitrate=11516.3kbits/s speed=0.0159x elapsed=0:03:37.82    \nframe=  176 fps=0.8 q=33.9 size=    4864KiB time=00:00:03.48 bitrate=11450.1kbits/s speed=0.0159x elapsed=0:03:38.34    \nframe=  177 fps=0.8 q=25.0 size=    4864KiB time=00:00:03.50 bitrate=11384.6kbits/s speed=0.016x elapsed=0:03:38.85    \nframe=  179 fps=0.8 q=33.9 size=    5120KiB time=00:00:03.54 bitrate=11848.4kbits/s speed=0.0161x elapsed=0:03:39.37    \nframe=  179 fps=0.8 q=33.9 size=    5120KiB time=00:00:03.54 bitrate=11848.4kbits/s speed=0.0161x elapsed=0:03:39.89    \nframe=  181 fps=0.8 q=33.0 size=    5120KiB time=00:00:03.58 bitrate=11716.0kbits/s speed=0.0162x elapsed=0:03:40.40    \nframe=  181 fps=0.8 q=33.0 size=    5120KiB time=00:00:03.58 bitrate=11716.0kbits/s speed=0.0162x elapsed=0:03:40.92    \nframe=  183 fps=0.8 q=31.8 size=    5120KiB time=00:00:03.62 bitrate=11586.6kbits/s speed=0.0163x elapsed=0:03:41.44    \nframe=  183 fps=0.8 q=31.8 size=    5120KiB time=00:00:03.62 bitrate=11586.6kbits/s speed=0.0163x elapsed=0:03:41.95    \nframe=  184 fps=0.8 q=34.0 size=    5120KiB time=00:00:03.64 bitrate=11522.9kbits/s speed=0.0164x elapsed=0:03:42.47    \nframe=  185 fps=0.8 q=34.0 size=    5120KiB time=00:00:03.66 bitrate=11459.9kbits/s speed=0.0164x elapsed=0:03:42.98    \nframe=  187 fps=0.8 q=31.6 size=    5376KiB time=00:00:03.70 bitrate=11902.8kbits/s speed=0.0166x elapsed=0:03:43.50    \nframe=  189 fps=0.8 q=34.0 size=    5376KiB time=00:00:03.74 bitrate=11775.5kbits/s speed=0.0167x elapsed=0:03:44.02    \nframe=  190 fps=0.8 q=34.0 size=    5376KiB time=00:00:03.76 bitrate=11712.9kbits/s speed=0.0167x elapsed=0:03:44.55    \nframe=  191 fps=0.8 q=25.2 size=    5376KiB time=00:00:03.78 bitrate=11650.9kbits/s speed=0.0168x elapsed=0:03:45.06    \nframe=  193 fps=0.9 q=34.0 size=    5376KiB time=00:00:03.82 bitrate=11528.9kbits/s speed=0.0169x elapsed=0:03:45.57    \nframe=  194 fps=0.9 q=33.9 size=    5376KiB time=00:00:03.84 bitrate=11468.9kbits/s speed=0.017x elapsed=0:03:46.10    \nframe=  195 fps=0.9 q=34.0 size=    5376KiB time=00:00:03.86 bitrate=11409.5kbits/s speed=0.017x elapsed=0:03:46.60    \nframe=  196 fps=0.9 q=25.3 size=    5376KiB time=00:00:03.88 bitrate=11350.7kbits/s speed=0.0171x elapsed=0:03:47.13    \nframe=  197 fps=0.9 q=31.1 size=    5632KiB time=00:00:03.90 bitrate=11830.2kbits/s speed=0.0171x elapsed=0:03:47.63    \nframe=  199 fps=0.9 q=34.0 size=    5632KiB time=00:00:03.94 bitrate=11710.1kbits/s speed=0.0173x elapsed=0:03:48.16    \nframe=  200 fps=0.9 q=34.0 size=    5632KiB time=00:00:03.96 bitrate=11650.9kbits/s speed=0.0173x elapsed=0:03:48.68    \nframe=  200 fps=0.9 q=34.0 size=    5632KiB time=00:00:03.96 bitrate=11650.9kbits/s speed=0.0173x elapsed=0:03:49.18    \nframe=  202 fps=0.9 q=31.7 size=    5888KiB time=00:00:04.00 bitrate=12058.7kbits/s speed=0.0174x elapsed=0:03:49.70    \nframe=  203 fps=0.9 q=33.9 size=    5888KiB time=00:00:04.02 bitrate=11998.7kbits/s speed=0.0175x elapsed=0:03:50.22    \nframe=  204 fps=0.9 q=33.9 size=    5888KiB time=00:00:04.04 bitrate=11939.3kbits/s speed=0.0175x elapsed=0:03:50.74    \nframe=  205 fps=0.9 q=25.7 size=    5888KiB time=00:00:04.06 bitrate=11880.5kbits/s speed=0.0176x elapsed=0:03:51.26    \nframe=  206 fps=0.9 q=31.7 size=    5888KiB time=00:00:04.08 bitrate=11822.3kbits/s speed=0.0176x elapsed=0:03:51.77    \nframe=  207 fps=0.9 q=34.0 size=    5888KiB time=00:00:04.10 bitrate=11764.6kbits/s speed=0.0176x elapsed=0:03:52.29    \nframe=  209 fps=0.9 q=34.0 size=    5888KiB time=00:00:04.14 bitrate=11650.9kbits/s speed=0.0178x elapsed=0:03:52.82    \nframe=  210 fps=0.9 q=25.8 size=    5888KiB time=00:00:04.16 bitrate=11594.9kbits/s speed=0.0178x elapsed=0:03:53.32    \nframe=  212 fps=0.9 q=34.1 size=    6144KiB time=00:00:04.20 bitrate=11983.8kbits/s speed=0.018x elapsed=0:03:53.84    \nframe=  213 fps=0.9 q=34.8 size=    6144KiB time=00:00:04.22 bitrate=11927.0kbits/s speed=0.018x elapsed=0:03:54.36    \nframe=  214 fps=0.9 q=34.9 size=    6144KiB time=00:00:04.24 bitrate=11870.8kbits/s speed=0.0181x elapsed=0:03:54.87    \nframe=  215 fps=0.9 q=25.7 size=    6144KiB time=00:00:04.26 bitrate=11815.0kbits/s speed=0.0181x elapsed=0:03:55.39    \nframe=  217 fps=0.9 q=34.0 size=    6144KiB time=00:00:04.30 bitrate=11705.1kbits/s speed=0.0182x elapsed=0:03:55.91    \nframe=  219 fps=0.9 q=34.0 size=    6144KiB time=00:00:04.34 bitrate=11597.2kbits/s speed=0.0184x elapsed=0:03:56.42    \nframe=  220 fps=0.9 q=25.7 size=    6144KiB time=00:00:04.36 bitrate=11544.0kbits/s speed=0.0184x elapsed=0:03:56.94    \nframe=  221 fps=0.9 q=32.3 size=    6400KiB time=00:00:04.38 bitrate=11970.1kbits/s speed=0.0184x elapsed=0:03:57.45    \nframe=  222 fps=0.9 q=34.0 size=    6400KiB time=00:00:04.40 bitrate=11915.7kbits/s speed=0.0185x elapsed=0:03:57.97    \nframe=  223 fps=0.9 q=34.1 size=    6400KiB time=00:00:04.42 bitrate=11861.8kbits/s speed=0.0185x elapsed=0:03:58.49    \nframe=  224 fps=0.9 q=25.7 size=    6400KiB time=00:00:04.44 bitrate=11808.4kbits/s speed=0.0186x elapsed=0:03:58.99    \nframe=  225 fps=0.9 q=31.8 size=    6400KiB time=00:00:04.46 bitrate=11755.4kbits/s speed=0.0186x elapsed=0:03:59.52    \nframe=  226 fps=0.9 q=34.0 size=    6400KiB time=00:00:04.48 bitrate=11702.9kbits/s speed=0.0187x elapsed=0:04:00.02    \nframe=  227 fps=0.9 q=35.0 size=    6400KiB time=00:00:04.50 bitrate=11650.9kbits/s speed=0.0187x elapsed=0:04:00.54    \nframe=  229 fps=0.9 q=32.4 size=    6656KiB time=00:00:04.54 bitrate=12010.2kbits/s speed=0.0188x elapsed=0:04:01.07    \nframe=  230 fps=1.0 q=33.9 size=    6656KiB time=00:00:04.56 bitrate=11957.5kbits/s speed=0.0189x elapsed=0:04:01.57    \nframe=  231 fps=1.0 q=34.9 size=    6656KiB time=00:00:04.58 bitrate=11905.3kbits/s speed=0.0189x elapsed=0:04:02.10    \nframe=  233 fps=1.0 q=31.8 size=    6656KiB time=00:00:04.62 bitrate=11802.2kbits/s speed=0.019x elapsed=0:04:02.60    \nframe=  235 fps=1.0 q=35.0 size=    6656KiB time=00:00:04.66 bitrate=11700.9kbits/s speed=0.0192x elapsed=0:04:03.12    \nframe=  236 fps=1.0 q=34.1 size=    6656KiB time=00:00:04.68 bitrate=11650.9kbits/s speed=0.0192x elapsed=0:04:03.63    \nframe=  236 fps=1.0 q=34.1 size=    6656KiB time=00:00:04.68 bitrate=11650.9kbits/s speed=0.0192x elapsed=0:04:04.16    \nframe=  237 fps=1.0 q=26.4 size=    6656KiB time=00:00:04.70 bitrate=11601.3kbits/s speed=0.0192x elapsed=0:04:04.68    \nframe=  239 fps=1.0 q=34.1 size=    6912KiB time=00:00:04.74 bitrate=11945.9kbits/s speed=0.0193x elapsed=0:04:05.18    \nframe=  240 fps=1.0 q=34.0 size=    6912KiB time=00:00:04.76 bitrate=11895.7kbits/s speed=0.0194x elapsed=0:04:05.70    \nframe=  241 fps=1.0 q=27.0 size=    6912KiB time=00:00:04.78 bitrate=11845.9kbits/s speed=0.0194x elapsed=0:04:06.21    \nframe=  243 fps=1.0 q=33.1 size=    6912KiB time=00:00:04.82 bitrate=11747.6kbits/s speed=0.0195x elapsed=0:04:06.73    \nframe=  244 fps=1.0 q=30.3 size=    6912KiB time=00:00:04.84 bitrate=11699.1kbits/s speed=0.0196x elapsed=0:04:07.24    \nframe=  245 fps=1.0 q=30.0 size=    6912KiB time=00:00:04.86 bitrate=11650.9kbits/s speed=0.0196x elapsed=0:04:07.76    \nframe=  247 fps=1.0 q=27.1 size=    6912KiB time=00:00:04.90 bitrate=11555.8kbits/s speed=0.0197x elapsed=0:04:08.28    \n[mp4 @ 000002ce2755aa80] Starting second pass: moving the moov atom to the beginning of the file\n[out#0/mp4 @ 000002ce2835f100] video:7224KiB audio:0KiB subtitle:0KiB other streams:0KiB global headers:2KiB muxing overhead: 0.086824%\nframe=  250 fps=1.0 q=29.0 Lsize=    7231KiB time=00:00:04.96 bitrate=11942.2kbits/s speed=0.0199x elapsed=0:04:08.89    \nx265 [info]: frame I:      1, Avg QP:25.57  kb/s: 147707.20\nx265 [info]: frame P:     53, Avg QP:25.80  kb/s: 49514.12\nx265 [info]: frame B:    196, Avg QP:33.20  kb/s: 952.78  \nx265 [info]: Weighted P-Frames: Y:0.0% UV:0.0%\n\nencoded 250 frames in 248.44s (1.01 fps), 11834.80 kb/s, Avg QP:31.60\n",
  "seconds": 250.39250898361206,
  "probe_out": {}
}